<?xml version="1.0" encoding="UTF-8"?>
<svg width="96px" height="96px" viewBox="0 0 96 96" version="1.1" xmlns="http://www.w3.org/2000/svg" xmlns:xlink="http://www.w3.org/1999/xlink">
    <!-- Generator: Sketch 51.3 (57544) - http://www.bohemiancoding.com/sketch -->
    <title>Shape</title>
    <desc>Created with Sketch.</desc>
    <defs></defs>
    <g id="Page-1" stroke="none" stroke-width="1" fill="none" fill-rule="evenodd">
        <g id="noun_X_1890803" fill="#E4E4E4" fill-rule="nonzero">
            <path d="M58.5,48 L93.3,13.2 C96.2,10.3 96.2,5.6 93.3,2.7 C90.4,-0.2 85.7,-0.2 82.8,2.7 L48,37.5 L13.2,2.7 C10.3,-0.2 5.6,-0.2 2.7,2.7 C-0.2,5.6 -0.2,10.3 2.7,13.2 L37.5,48 L2.7,82.8 C-0.2,85.7 -0.2,90.4 2.7,93.3 C4.1,94.7 6,95.5 7.9,95.5 C9.8,95.5 11.7,94.8 13.1,93.3 L48,58.5 L82.8,93.3 C84.2,94.7 86.1,95.5 88,95.5 C89.9,95.5 91.8,94.8 93.2,93.3 C96.1,90.4 96.1,85.7 93.2,82.8 L58.5,48 Z" id="Shape"></path>
        </g>
    </g>
</svg>