<?xml version="1.0" encoding="UTF-8"?>
<svg width="220px" height="130px" viewBox="0 0 220 130" version="1.1" xmlns="http://www.w3.org/2000/svg" xmlns:xlink="http://www.w3.org/1999/xlink">
    <!-- Generator: Sketch 51.3 (57544) - http://www.bohemiancoding.com/sketch -->
    <title>Group 21</title>
    <desc>Created with Sketch.</desc>
    <defs>
        <circle id="path-1" cx="13" cy="13" r="13"></circle>
        <circle id="path-3" cx="10" cy="10" r="10"></circle>
        <circle id="path-5" cx="10" cy="10" r="10"></circle>
        <circle id="path-7" cx="10" cy="10" r="10"></circle>
    </defs>
    <g id="Page-1" stroke="none" stroke-width="1" fill="none" fill-rule="evenodd">
        <g id="homepage" transform="translate(-1170.000000, -948.000000)">
            <g id="Group-21" transform="translate(1170.000000, 948.000000)">
                <rect id="checked-text-1" fill="#B1CBFF" x="40" y="7" width="154" height="10" rx="2"></rect>
                <rect id="checked-text-2" fill="#B1CBFF" x="75" y="44" width="90" height="10" rx="2"></rect>
                <rect id="checked-text-2-copy" fill="#B1CBFF" x="75" y="78" width="90" height="10" rx="2"></rect>
                <rect id="checked-text-2-copy-2" fill="#B1CBFF" x="75" y="114" width="90" height="10" rx="2"></rect>
                <path d="M212.161357,12.4240031 L212.161357,4.68044051 C212.161357,3.8251102 212.828508,3.13172798 213.65148,3.13172798 L215.141604,3.13172798 C215.964577,3.13172798 216.631728,3.8251102 216.631728,4.68044051 L216.631728,15.5214282 C216.631728,16.3767585 215.964577,17.0701407 215.141604,17.0701407 L209.121852,17.131728 C208.298879,17.131728 207.631728,16.4383458 207.631728,15.5830155 L207.631728,14.0343029 C207.631728,13.1789726 208.298879,12.4855904 209.121852,12.4855904 L212.161357,12.4240031 Z" id="checked-1" fill="#BFED90" transform="translate(212.131728, 10.131728) rotate(-315.000000) translate(-212.131728, -10.131728) "></path>
                <path d="M185.161357,50.4240031 L185.161357,42.6804405 C185.161357,41.8251102 185.828508,41.131728 186.65148,41.131728 L188.141604,41.131728 C188.964577,41.131728 189.631728,41.8251102 189.631728,42.6804405 L189.631728,53.5214282 C189.631728,54.3767585 188.964577,55.0701407 188.141604,55.0701407 L182.121852,55.131728 C181.298879,55.131728 180.631728,54.4383458 180.631728,53.5830155 L180.631728,52.0343029 C180.631728,51.1789726 181.298879,50.4855904 182.121852,50.4855904 L185.161357,50.4240031 Z" id="checked-2" fill="#BFED90" transform="translate(185.131728, 48.131728) rotate(-315.000000) translate(-185.131728, -48.131728) "></path>
                <path d="M185.161357,84.4240031 L185.161357,76.6804405 C185.161357,75.8251102 185.828508,75.131728 186.65148,75.131728 L188.141604,75.131728 C188.964577,75.131728 189.631728,75.8251102 189.631728,76.6804405 L189.631728,87.5214282 C189.631728,88.3767585 188.964577,89.0701407 188.141604,89.0701407 L182.121852,89.131728 C181.298879,89.131728 180.631728,88.4383458 180.631728,87.5830155 L180.631728,86.0343029 C180.631728,85.1789726 181.298879,84.4855904 182.121852,84.4855904 L185.161357,84.4240031 Z" id="checked-2-copy" fill="#BFED90" transform="translate(185.131728, 82.131728) rotate(-315.000000) translate(-185.131728, -82.131728) "></path>
                <path d="M185.161357,120.424003 L185.161357,112.680441 C185.161357,111.82511 185.828508,111.131728 186.65148,111.131728 L188.141604,111.131728 C188.964577,111.131728 189.631728,111.82511 189.631728,112.680441 L189.631728,123.521428 C189.631728,124.376759 188.964577,125.070141 188.141604,125.070141 L182.121852,125.131728 C181.298879,125.131728 180.631728,124.438346 180.631728,123.583015 L180.631728,122.034303 C180.631728,121.178973 181.298879,120.48559 182.121852,120.48559 L185.161357,120.424003 Z" id="checked-2-copy-2" fill="#BFED90" transform="translate(185.131728, 118.131728) rotate(-315.000000) translate(-185.131728, -118.131728) "></path>
                <g id="Oval-Copy">
                    <mask id="mask-2" fill="white">
                        <use xlink:href="#path-1"></use>
                    </mask>
                    <use id="Mask-1" fill="#FA96A4" xlink:href="#path-1"></use>
                    <circle id="oval-1" fill="#FFFFFF" mask="url(#mask-2)" cx="13" cy="26" r="8.66666667"></circle>
                    <circle id="small-oval-1" fill="#FFFFFF" mask="url(#mask-2)" cx="13" cy="10.8333333" r="4.33333333"></circle>
                </g>
                <g id="Oval-Copy-4" transform="translate(40.000000, 39.000000)">
                    <mask id="mask-4" fill="white">
                        <use xlink:href="#path-3"></use>
                    </mask>
                    <use id="Mask-2" fill="#FA96A4" xlink:href="#path-3"></use>
                    <circle id="oval-2" fill="#FFFFFF" mask="url(#mask-4)" cx="10" cy="20" r="6.66666667"></circle>
                    <circle id="small-oval-2" fill="#FFFFFF" mask="url(#mask-4)" cx="10" cy="8.33333333" r="3.33333333"></circle>
                </g>
                <g id="Oval-Copy-5" transform="translate(40.000000, 73.000000)">
                    <mask id="mask-6" fill="white">
                        <use xlink:href="#path-5"></use>
                    </mask>
                    <use id="Mask-2" fill="#FA96A4" xlink:href="#path-5"></use>
                    <circle id="oval-2" fill="#FFFFFF" mask="url(#mask-6)" cx="10" cy="20" r="6.66666667"></circle>
                    <circle id="small-oval-2" fill="#FFFFFF" mask="url(#mask-6)" cx="10" cy="8.33333333" r="3.33333333"></circle>
                </g>
                <g id="Oval-Copy-6" transform="translate(40.000000, 110.000000)">
                    <mask id="mask-8" fill="white">
                        <use xlink:href="#path-7"></use>
                    </mask>
                    <use id="Mask-2" fill="#FA96A4" xlink:href="#path-7"></use>
                    <circle id="oval-2" fill="#FFFFFF" mask="url(#mask-8)" cx="10" cy="20" r="6.66666667"></circle>
                    <circle id="small-oval-2" fill="#FFFFFF" mask="url(#mask-8)" cx="10" cy="8.33333333" r="3.33333333"></circle>
                </g>
            </g>
        </g>
    </g>
</svg>