<?xml version="1.0" encoding="UTF-8"?>
<svg width="52px" height="53px" viewBox="0 0 52 53" version="1.1" xmlns="http://www.w3.org/2000/svg" xmlns:xlink="http://www.w3.org/1999/xlink">
    <!-- Generator: Sketch 51.3 (57544) - http://www.bohemiancoding.com/sketch -->
    <title>if_38-instagram_1161953</title>
    <desc>Created with Sketch.</desc>
    <defs></defs>
    <g id="Page-1" stroke="none" stroke-width="1" fill="none" fill-rule="evenodd">
        <g id="Group-21" transform="translate(-345.000000, -2.000000)" fill="#434979" fill-rule="nonzero">
            <g id="if_38-instagram_1161953" transform="translate(345.000000, 2.000000)">
                <path d="M26.208,13.208 C18.928,13.208 12.896,19.136 12.896,26.52 C12.896,33.904 18.824,39.832 26.208,39.832 C33.592,39.832 39.52,33.8 39.52,26.52 C39.52,19.24 33.488,13.208 26.208,13.208 Z M26.208,35.048 C21.528,35.048 17.68,31.2 17.68,26.52 C17.68,21.84 21.528,17.992 26.208,17.992 C30.888,17.992 34.736,21.84 34.736,26.52 C34.736,31.2 30.888,35.048 26.208,35.048 Z" id="Shape"></path>
                <circle id="Oval" cx="40.04" cy="12.896" r="3.016"></circle>
                <path d="M47.84,5.096 C45.136,2.288 41.288,0.832 36.92,0.832 L15.496,0.832 C6.448,0.832 0.416,6.864 0.416,15.912 L0.416,37.232 C0.416,41.704 1.872,45.552 4.784,48.36 C7.592,51.064 11.336,52.416 15.6,52.416 L36.816,52.416 C41.288,52.416 45.032,50.96 47.736,48.36 C50.544,45.656 52,41.808 52,37.336 L52,15.912 C52,11.544 50.544,7.8 47.84,5.096 Z M47.424,37.336 C47.424,40.56 46.28,43.16 44.408,44.928 C42.536,46.696 39.936,47.632 36.816,47.632 L15.6,47.632 C12.48,47.632 9.88,46.696 8.008,44.928 C6.136,43.056 5.2,40.456 5.2,37.232 L5.2,15.912 C5.2,12.792 6.136,10.192 8.008,8.32 C9.776,6.552 12.48,5.616 15.6,5.616 L37.024,5.616 C40.144,5.616 42.744,6.552 44.616,8.424 C46.384,10.296 47.424,12.896 47.424,15.912 L47.424,37.336 Z" id="Shape"></path>
            </g>
        </g>
    </g>
</svg>