<?xml version="1.0" encoding="UTF-8"?>
<svg width="137px" height="28px" viewBox="0 0 137 28" version="1.1" xmlns="http://www.w3.org/2000/svg" xmlns:xlink="http://www.w3.org/1999/xlink">
    <!-- Generator: Sketch 51.3 (57544) - http://www.bohemiancoding.com/sketch -->
    <title>Group 6</title>
    <desc>Created with Sketch.</desc>
    <defs>
        <polygon id="path-1" points="0.0425114155 0.0133718947 106.438356 0.0133718947 106.438356 25.2158324 0.0425114155 25.2158324"></polygon>
    </defs>
    <g id="Page-1" stroke="none" stroke-width="1" fill="none" fill-rule="evenodd">
        <g id="homepage" transform="translate(-490.000000, -26.000000)">
            <g id="Group-6" transform="translate(490.000000, 26.000000)">
                <path d="M13.6772721,10.3832036 C15.5657461,10.3832036 17.0965901,11.9327445 17.0965901,13.8442714 C17.0965901,15.7557983 15.5657461,17.3053393 13.6772721,17.3053393 C11.7887981,17.3053393 10.257954,15.7557983 10.257954,13.8442714 C10.257954,11.9327445 11.7887981,10.3832036 13.6772721,10.3832036 M13.6772721,20.8098658 C17.4559523,20.8098658 20.5192282,17.709185 20.5192282,13.8843871 C20.5192282,10.0595165 17.4559523,6.95883574 13.6772721,6.95883574 C9.89859184,6.95883574 6.83538813,10.0595165 6.83538813,13.8843871 C6.83538813,17.709185 9.89859184,20.8098658 13.6772721,20.8098658 M13.6772721,0 C6.1235204,0 0,6.19830923 0,13.8442714 C0,17.3539577 1.29280896,20.5563085 3.41931801,22.9965339 L3.41931801,14.4211524 L3.44811607,14.4211524 C3.43765061,14.2290041 3.41931801,14.039036 3.41931801,13.8442714 C3.41931801,7.72030701 8.65695537,2.83469633 14.8452173,3.52640119 C19.5488275,4.05233815 23.351037,7.90097293 23.8705568,12.6620215 C24.5540595,18.9258821 19.7272455,24.227475 13.6772721,24.227475 C11.0463279,24.227475 8.65435705,23.2162254 6.83863603,21.5679214 L6.83863603,25.8318116 C8.85089115,27.0105732 11.1851937,27.6885428 13.6772721,27.6885428 C21.2310959,27.6885428 27.3545441,21.4902336 27.3545441,13.8442714 C27.3545441,6.19830923 21.2310959,0 13.6772721,0" id="Fill-1" fill="#FFFFFF"></path>
                <g id="Group-5" transform="translate(32.912064, 1.235447)">
                    <mask id="mask-2" fill="white">
                        <use xlink:href="#path-1"></use>
                    </mask>
                    <g id="Clip-4"></g>
                    <path d="M93.6791471,11.4962684 C93.8752482,10.3874186 94.3448225,9.50174861 95.0887362,8.83940378 C95.8322168,8.17756767 96.8005966,7.84624991 97.9938032,7.84624991 C99.0724672,7.84624991 99.9465857,8.17756767 100.616952,8.83940378 C101.286886,9.50174861 101.695544,10.3874186 101.842638,11.4962684 L93.6791471,11.4962684 Z M103.779325,13.172261 C103.991594,12.9655054 104.098053,12.7048261 104.098053,12.3901505 C104.098053,11.0826845 103.852944,9.92383537 103.362656,8.91396663 C102.872295,7.90446125 102.169449,7.11806303 101.254335,6.55513534 C100.338788,5.992571 99.2521122,5.71088914 97.9938032,5.71088914 C96.7190381,5.71088914 95.5790249,6.00492547 94.5739078,6.59234409 C93.5687907,7.18012607 92.7843143,7.99951798 92.2204787,9.05051984 C91.6566431,10.1018851 91.3746531,11.2894401 91.3746531,12.6136211 C91.3746531,13.9381654 91.6726661,15.1215054 92.2694859,16.1642951 C92.8658727,17.2071576 93.6951701,18.0226978 94.7578112,18.6101164 C95.819947,19.1978984 97.0212373,19.4915714 98.3615378,19.4915714 C99.1131021,19.4915714 99.9017646,19.3510938 100.727237,19.0694846 C101.552276,18.7881661 102.242924,18.4238547 102.798748,17.9769136 C103.060024,17.7782974 103.191022,17.5299726 103.191022,17.2320845 C103.191022,16.917845 103.043928,16.6360905 102.749741,16.3878383 C102.569663,16.2225065 102.324554,16.1395135 102.014272,16.1395135 C101.703628,16.1395135 101.43398,16.2306459 101.205256,16.4126199 C100.862061,16.6775869 100.424605,16.9010575 99.8937531,17.0830315 C99.3623965,17.2653689 98.8518265,17.3561379 98.3615378,17.3561379 C97.1193239,17.3561379 96.0693858,17.0004019 95.2113625,16.2884212 C94.353267,15.5768765 93.8342525,14.641498 93.6546075,13.4826489 L102.970381,13.4826489 C103.29712,13.4826489 103.566768,13.3794527 103.779325,13.172261 Z M88.4332096,16.9091969 L87.599726,16.9091969 C87.0764531,16.9091969 86.6351716,16.6857264 86.2758816,16.238858 C85.9161585,15.7918443 85.7365135,15.2374194 85.7365135,14.5752199 L85.7365135,8.4421713 L87.8203668,8.4421713 C88.1635616,8.4421713 88.4412933,8.34282684 88.6538503,8.1442106 C88.8660465,7.94559436 88.9725777,7.69726956 88.9725777,7.39930886 C88.9725777,7.06835447 88.8660465,6.80346014 88.6538503,6.60469855 C88.4412933,6.40608231 88.1635616,6.30681053 87.8203668,6.30681053 L85.7365135,6.30681053 L85.7365135,2.73128217 C85.7365135,2.36733407 85.622043,2.06937338 85.3933186,1.83740007 C85.1642333,1.60571746 84.8701178,1.48980349 84.5107556,1.48980349 C84.1511047,1.48980349 83.8569171,1.60571746 83.6282648,1.83740007 C83.3991796,2.06937338 83.2849978,2.36733407 83.2849978,2.73128217 L83.2849978,6.30681053 L82.1573266,6.30681053 C81.8140595,6.30681053 81.5360392,6.40608231 81.3237708,6.60469855 C81.1112137,6.80346014 81.0051156,7.06835447 81.0051156,7.39930886 C81.0051156,7.69726956 81.1112137,7.94559436 81.3237708,8.1442106 C81.5360392,8.34282684 81.8140595,8.4421713 82.1573266,8.4421713 L83.2849978,8.4421713 L83.2849978,14.5752199 C83.2849978,15.4857442 83.4727265,16.3051361 83.8489056,17.033323 C84.2246516,17.7620185 84.7436662,18.3369373 85.4055885,18.7590968 C86.0675107,19.1811835 86.7987215,19.3922269 87.599726,19.3922269 L88.0410075,19.3922269 C88.4657608,19.3922269 88.813214,19.2766036 89.082862,19.0445577 C89.3525821,18.8130204 89.4874061,18.514987 89.4874061,18.1507482 C89.4874061,17.7868728 89.3850611,17.4888395 89.1809486,17.2568661 C88.976403,17.0252562 88.7273973,16.9091969 88.4332096,16.9091969 Z M76.5191869,14.9848795 C76.1429356,15.6886481 75.6243541,16.243073 74.9624319,16.6485176 C74.3005096,17.0543255 73.5608543,17.2568661 72.7437546,17.2568661 C71.9263662,17.2568661 71.1870717,17.0543255 70.5251495,16.6485176 C69.8632273,16.243073 69.3400265,15.6886481 68.9561968,14.9848795 C68.5720062,14.2814742 68.3800913,13.4911516 68.3800913,12.6136211 C68.3800913,11.7364538 68.5720062,10.9418435 68.9561968,10.2299355 C69.3400265,9.5183908 69.8632273,8.95975083 70.5251495,8.5539429 C71.1870717,8.14849833 71.9263662,7.94559436 72.7437546,7.94559436 C73.5608543,7.94559436 74.3005096,8.14849833 74.9624319,8.5539429 C75.6243541,8.95975083 76.1429356,9.5183908 76.5191869,10.2299355 C76.894933,10.9418435 77.0830225,11.7364538 77.0830225,12.6136211 C77.0830225,13.4911516 76.894933,14.2814742 76.5191869,14.9848795 Z M76.16365,6.6171257 C75.1420769,6.01313756 74.0021358,5.71088914 72.7437546,5.71088914 C71.4850847,5.71088914 70.3371321,6.01313756 69.2993917,6.6171257 C68.2613625,7.22162254 67.4485211,8.04915387 66.8601458,9.10015573 C66.2718427,10.1515936 65.9775829,11.3224338 65.9775829,12.6136211 C65.9775829,13.9048083 66.2510561,15.0760845 66.7988688,16.1270864 C67.3462483,17.1784516 68.0981735,18.0017679 69.0542834,18.5976893 C70.0103211,19.1936107 71.0767875,19.4915714 72.2535381,19.4915714 C73.2011312,19.4915714 74.0836942,19.2928825 74.9011548,18.8955773 C75.7181824,18.4983448 76.4126558,17.9439926 76.9849359,17.2320845 L76.9849359,18.1507482 C76.9849359,18.514987 77.1033039,18.8172354 77.3404006,19.0569848 C77.5771365,19.2971702 77.8755104,19.4170085 78.2351613,19.4170085 C78.5945235,19.4170085 78.8928973,19.2971702 79.1299941,19.0569848 C79.36673,18.8172354 79.485531,18.514987 79.485531,18.1507482 L79.485531,12.6136211 C79.485531,11.3224338 79.187085,10.1515936 78.5906982,9.10015573 C77.9938783,8.04915387 77.1848623,7.22162254 76.16365,6.6171257 Z M64.8254441,6.05848572 C64.3351554,5.79388209 63.656705,5.66118057 62.7906702,5.66118057 C61.9732096,5.66118057 61.2051893,5.82687579 60.4862483,6.15783018 C59.7668744,6.48922062 59.1624039,6.9442284 58.6721152,7.52343493 L58.6721152,7.05171227 C58.6721152,6.22418094 58.2633849,5.81023359 57.4463573,5.81023359 C57.0540831,5.81023359 56.7515231,5.91800816 56.5392547,6.1329759 C56.3266976,6.34830701 56.2205995,6.65440712 56.2205995,7.05171227 L56.2205995,18.1507482 C56.2205995,18.5646956 56.3266976,18.8750834 56.5392547,19.0818391 C56.7515231,19.2890308 57.0540831,19.3922269 57.4463573,19.3922269 C57.8546546,19.3922269 58.1611121,19.2848157 58.3656577,19.0694846 C58.5698424,18.8545169 58.6721152,18.5479807 58.6721152,18.1507482 L58.6721152,10.9003471 C58.6721152,9.97354394 59.0314052,9.23670894 59.750707,8.69049611 C60.4697201,8.1442106 61.4178185,7.87103152 62.594497,7.87103152 C63.0028664,7.87103152 63.5341508,7.92924286 64.1879894,8.04493882 C64.3511784,8.07829588 64.4737325,8.09457471 64.555724,8.09457471 C65.0621078,8.09457471 65.3892797,7.82997108 65.5363735,7.30003708 C65.5523965,7.25032851 65.5608411,7.16762625 65.5608411,7.05171227 C65.5608411,6.65440712 65.3156606,6.32345273 64.8254441,6.05848572 Z M51.0480645,5.78537931 C50.6884136,5.78537931 50.3900398,5.90136596 50.1533039,6.1329759 C49.9162071,6.36502188 49.7978392,6.67104931 49.7978392,7.05171227 L49.7978392,14.053716 C49.7978392,14.64971 49.6384755,15.1877835 49.3197481,15.6677182 C49.0010208,16.1480163 48.5598115,16.5286066 47.9959758,16.8099251 C47.4321402,17.0915343 46.8069554,17.2320845 46.1204934,17.2320845 C44.943815,17.2320845 43.999975,16.8886303 43.2890455,16.2015766 C42.5780439,15.5148862 42.2225792,14.5007297 42.2225792,13.1599066 L42.2225792,7.05171227 C42.2225792,6.68776418 42.1038503,6.38558843 41.8671866,6.14540304 C41.6300177,5.90565369 41.3316438,5.78537931 40.9723538,5.78537931 C40.6126307,5.78537931 40.3142569,5.90565369 40.077521,6.14540304 C39.8404242,6.38558843 39.7220563,6.68776418 39.7220563,7.05171227 L39.7220563,13.1599066 C39.7220563,14.5007297 39.9752482,15.6471516 40.4820651,16.5988817 C40.988449,17.5509025 41.6912947,18.2748743 42.5903137,18.7714512 C43.4889719,19.2680282 44.5025335,19.516353 45.6302047,19.516353 C46.4473045,19.516353 47.2152526,19.3716604 47.9346988,19.0818391 C48.6536397,18.7923812 49.2746384,18.3827215 49.7978392,17.8527875 L49.7978392,18.125894 C49.7978392,18.4902054 49.9162071,18.7923812 50.1533039,19.0322032 C50.3900398,19.2723159 50.6884136,19.3922269 51.0480645,19.3922269 C51.4238828,19.3922269 51.7260819,19.2723159 51.955095,19.0322032 C52.1838194,18.7923812 52.2983621,18.4902054 52.2983621,18.125894 L52.2983621,7.05171227 C52.2983621,6.67104931 52.1838194,6.36502188 51.955095,6.1329759 C51.7260819,5.90136596 51.4238828,5.78537931 51.0480645,5.78537931 Z M31.9020489,11.6948847 L36.4128782,7.62277938 C36.6740816,7.40788432 36.8051525,7.12620245 36.8051525,6.77853319 C36.8051525,6.48057249 36.6986213,6.22418094 36.4864251,6.00884983 C36.273868,5.7442462 35.9961364,5.61154468 35.6529415,5.61154468 C35.3587539,5.61154468 35.1051289,5.71939192 34.8929327,5.93435966 L28.935777,11.3224338 L28.935777,1.2166244 C28.935777,0.852676307 28.8254205,0.55863997 28.604852,0.335169448 C28.384139,0.111698925 28.0938489,0 27.7344867,0 C27.3748358,0 27.0849065,0.111698925 26.8641935,0.335169448 C26.643625,0.55863997 26.5332685,0.852676307 26.5332685,1.2166244 L26.5332685,18.1755298 C26.5332685,18.5398413 26.643625,18.8335143 26.8641935,19.0569848 C27.0849065,19.2804553 27.3748358,19.3922269 27.7344867,19.3922269 C28.0938489,19.3922269 28.384139,19.2804553 28.604852,19.0569848 C28.8254205,18.8335143 28.935777,18.5398413 28.935777,18.1755298 L28.935777,14.3766036 L30.1615348,13.2840326 L34.8193858,19.1191205 C35.048038,19.4170085 35.3422978,19.5660615 35.7019487,19.5660615 C35.9796082,19.5660615 36.2412447,19.4667171 36.4864251,19.2680282 C36.7806128,19.019776 36.9277066,18.7136759 36.9277066,18.3493645 C36.9277066,18.0513311 36.8377036,17.803079 36.6580586,17.6044627 L31.9020489,11.6948847 Z M21.1156975,5.81023359 C20.7560465,5.81023359 20.4576727,5.92614757 20.2209368,6.15783018 C19.98384,6.38980349 19.8654721,6.6959036 19.8654721,7.07656656 L19.8654721,18.125894 C19.8654721,18.4902054 19.98384,18.7923812 20.2209368,19.0322032 C20.4576727,19.2723159 20.7560465,19.3922269 21.1156975,19.3922269 C21.4915157,19.3922269 21.793787,19.2723159 22.0228001,19.0322032 C22.2514523,18.7923812 22.365995,18.4902054 22.365995,18.125894 L22.365995,7.07656656 C22.365995,6.6959036 22.2514523,6.38980349 22.0228001,6.15783018 C21.793787,5.92614757 21.4915157,5.81023359 21.1156975,5.81023359 Z M21.1156975,0.322742306 C20.6744881,0.322742306 20.2944837,0.484149796 19.9757564,0.806892102 C19.6571012,1.12970708 19.4977375,1.51458509 19.4977375,1.96152614 C19.4977375,2.40846719 19.6571012,2.7933452 19.9757564,3.1160875 C20.2944837,3.43890248 20.6744881,3.60030997 21.1156975,3.60030997 C21.5569789,3.60030997 21.9369834,3.43890248 22.2556385,3.1160875 C22.5743659,2.7933452 22.7337296,2.40846719 22.7337296,1.96152614 C22.7337296,1.51458509 22.5743659,1.12970708 22.2556385,0.806892102 C21.9369834,0.484149796 21.5569789,0.322742306 21.1156975,0.322742306 Z M13.4060465,14.9848795 C13.0217838,15.6886481 12.4989439,16.243073 11.8370217,16.6485176 C11.1750994,17.0543255 10.4354441,17.2568661 9.61841656,17.2568661 C8.80102813,17.2568661 8.06166151,17.0543255 7.39981146,16.6485176 C6.73781706,16.243073 6.21887465,15.6886481 5.84305641,14.9848795 C5.4668773,14.2814742 5.2792208,13.4911516 5.2792208,12.6136211 C5.2792208,11.7364538 5.4668773,10.9418435 5.84305641,10.2299355 C6.21887465,9.5183908 6.73781706,8.95975083 7.39981146,8.5539429 C8.06166151,8.14849833 8.80102813,7.94559436 9.61841656,7.94559436 C10.4354441,7.94559436 11.1750994,8.14849833 11.8370217,8.5539429 C12.4989439,8.95975083 13.0217838,9.5183908 13.4060465,10.2299355 C13.7898041,10.9418435 13.982152,11.7364538 13.982152,12.6136211 C13.982152,13.4911516 13.7898041,14.2814742 13.4060465,14.9848795 Z M13.0627795,6.6171257 C12.0247503,6.01313756 10.8767256,5.71088914 9.61841656,5.71088914 C8.35974665,5.71088914 7.21980557,6.01313756 6.19852114,6.6171257 C5.176948,7.22162254 4.36793195,8.04915387 3.77154515,9.10015573 C3.17472529,10.1515936 2.87671233,11.3224338 2.87671233,12.6136211 L2.87671233,23.9361275 C2.87671233,24.3167178 2.99508028,24.6228179 3.23224923,24.8547912 C3.46891295,25.0864739 3.76735896,25.2024605 4.12700987,25.2024605 C4.50275593,25.2024605 4.80502725,25.0864739 5.03404036,24.8547912 C5.26269259,24.6228179 5.37723523,24.3167178 5.37723523,23.9361275 L5.37723523,17.2320845 C5.94915451,17.9439926 6.64362793,18.4983448 7.46101635,18.8955773 C8.27811607,19.2928825 9.16067904,19.4915714 10.1087053,19.4915714 C11.2854559,19.4915714 12.3518501,19.1936107 13.3078878,18.5976893 C14.2639976,18.0017679 15.0155619,17.1784516 15.5633746,16.1270864 C16.1107542,15.0760845 16.3845883,13.9048083 16.3845883,12.6136211 C16.3845883,11.3224338 16.0904006,10.1515936 15.5020975,9.10015573 C14.91365,8.04915387 14.1004478,7.22162254 13.0627795,6.6171257 Z" id="Fill-3" fill="#FFFFFF" mask="url(#mask-2)"></path>
                </g>
            </g>
        </g>
    </g>
</svg>