<?xml version="1.0" encoding="UTF-8"?>
<svg width="220px" height="130px" viewBox="0 0 220 130" version="1.1" xmlns="http://www.w3.org/2000/svg" xmlns:xlink="http://www.w3.org/1999/xlink">
    <!-- Generator: Sketch 51.3 (57544) - http://www.bohemiancoding.com/sketch -->
    <title>Group 15</title>
    <desc>Created with Sketch.</desc>
    <defs></defs>
    <g id="Page-1" stroke="none" stroke-width="1" fill="none" fill-rule="evenodd">
        <g id="homepage" transform="translate(-850.000000, -948.000000)">
            <g id="Group-15" transform="translate(850.000000, 948.000000)">
                <rect id="category-box-1" fill="#B1CBFF" x="50" y="20" width="50" height="50" rx="2"></rect>
                <rect id="category-box-1-copy-2" fill="#FA96A4" x="0" y="0" width="40" height="130" rx="2"></rect>
                <rect id="category-box-1-copy" fill="#B1CBFF" x="50" y="0" width="170" height="10" rx="2"></rect>
                <rect id="category-box-2" fill="#B1CBFF" x="110" y="20" width="50" height="50" rx="2"></rect>
                <rect id="category-box-3" fill="#B1CBFF" x="50" y="80" width="50" height="50" rx="2"></rect>
                <rect id="category-box-4" fill="#B1CBFF" x="110" y="80" width="50" height="50" rx="2"></rect>
                <rect id="category-box-5" fill="#B1CBFF" x="170" y="20" width="50" height="50" rx="2"></rect>
                <rect id="category-box-5-copy" fill="#B1CBFF" x="170" y="80" width="50" height="50" rx="2"></rect>
                <rect id="category-name-1" fill="#FFFFFF" x="55" y="25" width="24" height="7" rx="2"></rect>
                <rect id="category-name-2" fill="#FFFFFF" x="115" y="25" width="24" height="7" rx="2"></rect>
                <rect id="category-name-3" fill="#FFFFFF" x="55" y="85" width="24" height="7" rx="2"></rect>
                <rect id="category-name-4" fill="#FFFFFF" x="115" y="85" width="24" height="7" rx="2"></rect>
                <rect id="category-name-5" fill="#FFFFFF" x="175" y="25" width="24" height="7" rx="2"></rect>
                <rect id="category-name-5-copy" fill="#FFFFFF" x="175" y="85" width="24" height="7" rx="2"></rect>
                <rect id="Rectangle-2" fill="#FFFFFF" x="4" y="4" width="32" height="32" rx="2"></rect>
                <rect id="Rectangle-2-Copy" fill="#FFFFFF" x="4" y="40" width="32" height="32" rx="2"></rect>
            </g>
        </g>
    </g>
</svg>