<?xml version="1.0" encoding="UTF-8"?>
<svg width="56px" height="56px" viewBox="0 0 56 56" version="1.1" xmlns="http://www.w3.org/2000/svg" xmlns:xlink="http://www.w3.org/1999/xlink">
    <!-- Generator: Sketch 51.3 (57544) - http://www.bohemiancoding.com/sketch -->
    <title>if_facebook_circle_color_107175</title>
    <desc>Created with Sketch.</desc>
    <defs></defs>
    <g id="Page-1" stroke="none" stroke-width="1" fill="none" fill-rule="evenodd">
        <g id="Group-21" transform="translate(-263.000000, -1.000000)" fill="#434979">
            <g id="if_facebook_circle_color_107175" transform="translate(263.000000, 1.000000)">
                <path d="M24.0473333,43.232 L30.3417333,43.232 L30.3417333,27.9981333 L34.5408,27.9981333 L35.0970667,22.7490667 L30.3417333,22.7490667 L30.3482667,20.1208 C30.3482667,18.7525333 30.4789333,18.018 32.4426667,18.018 L35.0672,18.018 L35.0672,12.768 L30.8672,12.768 C25.8225333,12.768 24.0473333,15.3150667 24.0473333,19.5972 L24.0473333,22.7490667 L20.9029333,22.7490667 L20.9029333,27.9990667 L24.0473333,27.9990667 L24.0473333,43.232 Z M28,56 C12.5365333,56 0,43.4634667 0,28 C0,12.5356 12.5365333,0 28,0 C43.4634667,0 56,12.5356 56,28 C56,43.4634667 43.4634667,56 28,56 Z" id="Shape"></path>
            </g>
        </g>
    </g>
</svg>