<?xml version="1.0" encoding="UTF-8"?>
<svg width="57px" height="57px" viewBox="0 0 57 57" version="1.1" xmlns="http://www.w3.org/2000/svg" xmlns:xlink="http://www.w3.org/1999/xlink">
    <!-- Generator: Sketch 51.3 (57544) - http://www.bohemiancoding.com/sketch -->
    <title>if_linkedin_834713</title>
    <desc>Created with Sketch.</desc>
    <defs></defs>
    <g id="Page-1" stroke="none" stroke-width="1" fill="none" fill-rule="evenodd">
        <g id="Group-21" transform="translate(-179.000000, 0.000000)" fill-rule="nonzero">
            <g id="if_linkedin_834713" transform="translate(179.000000, 0.000000)">
                <rect id="rect2990-1" fill="#434979" x="0" y="0" width="57" height="57" rx="28.5"></rect>
                <path d="M16.8233443,13 C14.711243,13 13,14.7151731 13,16.8312141 C13,18.947265 14.711243,20.6624273 16.8233443,20.6624273 C18.9354455,20.6624273 20.6466885,18.947265 20.6466885,16.8312141 C20.6466885,14.7151731 18.9354455,13 16.8233443,13 Z M36.84853,22.9751722 L36.84853,22.9777664 C36.4166802,22.9762276 35.9976725,22.9935165 35.4494924,23.021893 C34.2472581,23.084129 31.4394705,24.3867983 30.4114003,26.466352 C30.4114003,25.5635119 30.4217824,24.7343181 30.4217824,23.4969012 C29.190324,23.4969012 27.578754,23.5046836 24.213066,23.5046836 C24.213066,27.2832273 24.1715364,40.6643996 24.1715364,44.5633803 L30.6891313,44.5633803 C30.6891313,42.2503976 30.7202778,36.440459 30.7202778,32.7920018 C30.7202778,31.5669015 31.4608257,28.7375606 34.4994964,28.7375606 C37.2586518,28.7375606 38.0321314,31.0631282 38.0321314,32.7920018 C38.0321314,36.5916999 38.00358,41.9627752 38.00358,44.5633803 L44.5601085,44.5633803 C44.5601085,42.0213095 44.5834185,35.1161698 44.5056007,30.75959 C44.4111158,25.4699304 41.1980887,23.2129935 38.3150536,23.0348665 C37.7217684,22.9982244 37.2803798,22.9767405 36.84853,22.9751663 L36.84853,22.9751722 Z M13.5502708,23.5877515 L13.5502708,44.5530038 L20.0860353,44.5530038 L20.0860353,23.5877515 L13.5502708,23.5877515 Z" id="rect2989-1-7" fill="#FFFFFF"></path>
            </g>
        </g>
    </g>
</svg>